<svg width="805" height="357" viewBox="0 0 805 357" fill="none" xmlns="http://www.w3.org/2000/svg">
<path d="M654.672 300.362C600.833 313.528 589.813 290.197 518.059 300.362C428.628 313.03 429.055 351.6 362.693 356.542C266.574 363.705 243.915 284.393 140.365 291.938C74.1925 296.763 44.9883 331.934 19.816 311.604C-8.09164 289.052 -6.71602 217.915 25.1762 178.317C54.7283 141.637 86.1146 162.299 143.037 123.38C195.263 87.6789 185.475 58.942 236.784 27.8671C248.469 20.8031 300.316 -8.81259 360.005 2.57934C422.367 14.4853 422.303 57.6155 477.866 72.8047C553.92 93.5987 586.002 21.5162 670.737 33.4719C731.248 42.0117 799.46 90.7134 804.678 148.651C810.939 218.247 724.623 283.249 654.672 300.345V300.362Z" fill="#908E8E"/>
</svg>
