<svg width="735" height="340" viewBox="0 0 735 340" fill="none" xmlns="http://www.w3.org/2000/svg">
<path d="M565.243 338.809C514.979 336.075 511.01 313.817 445.813 304.018C364.554 291.805 355.56 324.069 296.345 311.289C210.576 292.783 210.029 220.89 117.67 200.81C58.6496 187.981 24.5771 209.865 7.50821 186.506C-11.4124 160.597 7.06668 101.641 44.5644 76.7499C79.3075 53.6962 101.728 78.9144 160.942 60.9646C215.27 44.5008 213.693 18.0505 266.095 5.2102C278.026 2.29672 330.544 -9.19017 379.959 15.508C431.585 41.3153 421.055 77.2566 465.94 104.07C527.378 140.774 572.931 88.8492 644.104 120.396C694.931 142.926 742.735 200.899 733.226 250.531C721.798 310.146 630.552 342.356 565.248 338.795L565.243 338.809Z" fill="#A9A9A9"/>
</svg>
