<svg width="663" height="280" viewBox="0 0 663 280" fill="none" xmlns="http://www.w3.org/2000/svg">
<path d="M128.429 32.7386C172.994 24.5181 181.167 43.1562 240.292 37.9644C313.982 31.4938 315.04 1.36269 369.559 0.0429848C448.525 -1.87332 464.185 60.9191 549.251 58.9893C603.61 57.753 628.806 31.4094 648.676 48.2454C670.705 66.921 666.984 122.411 639.426 152.109C613.89 179.617 588.943 162.285 540.914 190.494C496.848 216.371 503.814 239.183 460.667 261.483C450.842 266.551 407.308 287.691 358.849 276.514C308.22 264.832 309.845 231.159 264.903 217.174C203.386 198.029 174.487 253.083 105.54 240.507C56.3032 231.524 2.22608 190.89 0.0668633 145.453C-2.52166 90.8748 70.5273 43.4242 128.429 32.7516L128.429 32.7386Z" fill="#737373"/>
</svg>
