<svg width="852" height="368" viewBox="0 0 852 368" fill="none" xmlns="http://www.w3.org/2000/svg">
<path d="M666.376 367.104C608.337 368.505 601.76 343.275 525.913 337.905C431.38 331.211 423.958 369.117 354.719 359.778C254.43 346.257 247.298 263.655 139.291 248.92C70.2701 239.508 33.0749 267.748 11.3364 242.436C-12.7617 214.361 3.15079 144.911 44.0121 112.905C81.8725 83.2601 109.933 110.225 176.391 84.2353C237.365 60.3957 233.158 30.1298 292.246 10.63C305.7 6.20186 365.044 -11.7524 424.094 12.174C485.786 37.1755 476.931 79.4474 530.964 106.215C604.924 142.857 652.6 79.0431 737.287 108.875C797.763 130.181 857.972 192.508 851.529 250.427C843.783 319.997 741.787 365.277 666.38 367.088L666.376 367.104Z" fill="#737373"/>
</svg>
