<svg width="84" height="84" viewBox="0 0 84 84" fill="none" xmlns="http://www.w3.org/2000/svg">
<path d="M41.9289 0L45.9759 7.37571L51.6148 1.13211L53.8518 9.24232L60.7785 4.46743L61.0848 12.8749L68.926 9.82613L67.2852 18.0776L75.6181 16.9193L72.1186 24.57L80.494 25.3647L75.3245 32.002L83.2909 34.7068L76.73 39.9731L83.8579 44.4421L76.2593 48.0534L82.1645 54.0457L73.938 55.8073L78.302 63L69.891 62.8169L72.4786 70.8222L64.3365 68.7043L65.0083 77.0905L57.5741 73.152L56.2938 81.4671L49.9682 75.9203L46.8048 83.716L41.9289 76.86L37.053 83.716L33.8897 75.9203L27.5641 81.4671L26.2838 73.152L18.8496 77.0905L19.5214 68.7043L11.3793 70.8222L13.9669 62.8169L5.55588 63L9.91993 55.8073L1.69338 54.0457L7.59855 48.0534L0 44.4421L7.12792 39.9731L0.567017 34.7068L8.53343 32.002L3.36387 25.3647L11.7393 24.57L8.23977 16.9193L16.5727 18.0776L14.9319 9.82613L22.7731 12.8749L23.0794 4.46743L30.0061 9.24232L32.2431 1.13211L37.8819 7.37571L41.9289 0Z" fill="#F6A75D"/>
<path d="M75.9289 42C75.9289 60.7777 60.7066 76 41.9289 76C23.1513 76 7.92894 60.7777 7.92894 42C7.92894 23.2223 23.1513 8 41.9289 8C60.7066 8 75.9289 23.2223 75.9289 42Z" fill="#F6D35D"/>
</svg>
