<?xml version="1.0" encoding="UTF-8"?>
<svg id="Layer_6" data-name="Layer 6" xmlns="http://www.w3.org/2000/svg" viewBox="0 0 3974.34 2310.41">
  <defs>
    <style>
      .cls-1 {
        stroke: #e85d7e;
      }

      .cls-1, .cls-2, .cls-3 {
        stroke-width: 9px;
      }

      .cls-1, .cls-2, .cls-3, .cls-4 {
        fill: none;
        stroke-miterlimit: 10;
      }

      .cls-2 {
        stroke: #c7dfef;
      }

      .cls-3 {
        stroke: #e5d79b;
      }

      .cls-4 {
        stroke: #b072b0;
        stroke-width: 8px;
      }
    </style>
  </defs>
  <path class="cls-4" d="M1416,599.51v337.91c0,10.32-8.36,18.68-18.68,18.68h-327.68c-10.84,0-16.98-12.47-10.32-21.02,8.32-10.68,19.06-22.37,32.78-33.58,29.31-23.96,58.69-34.71,76.51-39.71,11.29,14.74,27.73,32.87,50.67,49.68,40.23,29.48,80.41,40.26,104.33,44.64"/>
  <path class="cls-2" d="M1409.04,599.51l-.26,134.1h221.06v343.34c5.71,30.33,17.86,77.33,46.89,127.23,48.89,84.06,101.73,100.8,139.3,171.25,18.65,34.97,37.99,91.54,28.53,178.98,32.71,68.54,65.42,137.08,98.12,205.62,130.9,3.1,261.8,6.2,392.71,9.3"/>
  <path class="cls-3" d="M2504.76,1790.77h269.63l-4.33-18.86s157.87-36.25,152.39-35,92.24-128.43,92.24-128.43l110.83-25.78"/>
  <path class="cls-1" d="M2437.7,1736.67v-185.22l-1520.19,4.52c-11.35-6.04-29.18-16.74-47.44-33.88-67.27-63.18-61.27-139.81-101.65-307.2-36.2-150.08-63.61-182.09-90.35-201.03-33.52-23.74-70.73-31.94-101.65-38.4-94.98-19.84-148.74,9.09-187.48-29.36-18.08-17.94-10.89-28.73-31.62-51.95-31.02-34.74-77.24-44.34-112.39-46.85,5.68-27.83,15.62-69.36,33.33-118.04,20.88-57.4,36.67-81.1,49.69-115.2,16.33-42.77,30.49-107.63,15.85-200.31,315.47,2.02,630.94,4.04,946.41,6.06v92.61"/>
</svg>