<?xml version="1.0" encoding="UTF-8"?>
<svg xmlns="http://www.w3.org/2000/svg" viewBox="0 0 3974.34 2310.41">
  <defs>
    <style>
      .cls-1 {
        fill: #1c2c36;
      }

      .cls-2 {
        fill: #3b586c;
      }

      .cls-3 {
        fill: #acbadf;
      }
    </style>
  </defs>
  <g id="Layer_4" data-name="Layer 4">
    <rect class="cls-1" x="108.47" y="11.35" width="3250" height="2250"/>
  </g>
  <g id="Layer_2" data-name="Layer 2">
    <rect class="cls-2" x="98.85" y="399.77" width="3266.8" height="41.73"/>
    <rect class="cls-2" x="1441.75" width="54.72" height="2267.25"/>
    <rect class="cls-2" x="106.7" y="1535.43" width="2766.87" height="35.77"/>
    <path class="cls-2" d="M953.7,1565.31c-8.6,0-17.11-.84-25.46-2.51-64.81-12.96-97.64-71.19-106.16-88.72l-.35-.72-.23-.77c-9.62-32.5-18.49-66.04-26.37-99.67-7.7-32.89-12.18-56.19-16.51-78.72-3.79-19.7-7.36-38.31-12.91-62.65-9.61-42.19-21.5-85.15-35.33-127.69-14.34-29.54-34.12-55.01-58.82-75.69-15.54-13.01-32.85-23.91-51.45-32.4l-6.31-2.88.69-6.9c2.1-20.87,12.05-73.72,58.99-113.7,36.92-31.44,77.88-38.58,99-40.04l.67-.02h373.73c17.35-6.96,33.17-16.82,47.03-29.31,15.74-14.18,28.31-31.12,37.36-50.35,8.57-20.97,12.98-43.08,13.1-65.71.13-23.36-4.31-46.18-13.19-67.81l-.19-.45-.14-.47c-5.9-19.93-15.36-38.23-28.12-54.37-9.62-12.17-20.97-22.89-33.74-31.86l-4.11-2.89v-108.36h19.35v98.39c12.64,9.42,23.95,20.41,33.68,32.72,14.2,17.96,24.74,38.28,31.35,60.41,9.73,23.88,14.59,49.04,14.45,74.81-.13,25.21-5.06,49.83-14.63,73.17l-.19.43c-10.16,21.68-24.3,40.77-42.03,56.74-16.06,14.46-34.44,25.78-54.64,33.62l-1.69.66h-377.05c-18.84,1.34-54.95,7.76-87.46,35.45-37.24,31.71-48.21,72.66-51.44,94.19,17.75,8.72,34.34,19.5,49.39,32.11,26.98,22.59,48.54,50.42,64.11,82.7l.28.59.2.62c14.1,43.3,26.21,87.04,36,130.01,5.62,24.67,9.23,43.43,13.05,63.3,4.3,22.35,8.74,45.45,16.35,77.96,7.73,33.01,16.43,65.91,25.85,97.81,8.04,16.3,36.96,66.44,92.21,77.5,14.22,2.84,29.02,2.84,43.98-.02l3.63,19.01c-8.7,1.66-17.37,2.49-25.94,2.49Z"/>
    <path class="cls-2" d="M619.51,995.48c-14.77-7.99-30.57-13.68-46.95-16.9-11.53-2.27-20.35-2.74-24.2-2.94-134.87-7.1-149.68-14.72-158.28-20.52-30.29-20.39-18.83-41.72-54.21-68.89-28.04-21.54-59.87-27.05-81.32-28.52-1.13-5.65-2.26-11.29-3.39-16.94,25.57.54,60.93,5.55,91.48,28.52,36.21,27.21,25.4,49.36,57.6,68.89,18.44,11.19,62.01,13.64,148.38,18.09,4.72.24,14.66.76,27.68,3.32,18.29,3.6,35.93,9.95,52.41,18.87l-9.21,17.02Z"/>
    <path class="cls-2" d="M1449.18,1757.59c-4.98-29.85-31.59-101.92-54.75-148.29-11.93-23.89-26.3-46.75-42.71-67.95l-2.47-3.19.53-4c2.98-22.53,8.51-44.64,16.43-65.72,8.3-22.1,16.96-36.97,25.33-51.35,7.74-13.3,15.06-25.87,22.44-44.23.72-1.8,1.67-4.1,2.77-6.81,8.64-21.09,28.89-70.48,32.37-98.1l19.2,2.42c-3.81,30.17-23.97,79.38-33.67,103.02-1.09,2.66-2.01,4.91-2.72,6.68-7.9,19.67-15.92,33.44-23.67,46.76-8.34,14.32-16.21,27.85-23.94,48.42-6.94,18.48-11.92,37.8-14.81,57.51,16.15,21.28,30.35,44.1,42.23,67.9,23.83,47.71,51.3,122.43,56.53,153.75l-19.09,3.19Z"/>
    <path class="cls-2" d="M1474.88,1764.13c-.87-45.7,6.99-113.09,49.4-174.59,7.86-11.4,16.71-22.29,26.36-32.43-9.94-23.7-19.19-47.96-27.54-72.19-22.34-64.82-39.19-132.22-50.09-200.34l19.11-3.06c10.72,67.02,27.3,133.33,49.27,197.09,8.9,25.84,18.85,51.7,29.56,76.86l2.56,6.01-4.61,4.62c-10.61,10.62-20.26,22.2-28.69,34.42-39.49,57.26-46.8,120.37-45.98,163.23l-19.35.37Z"/>
    <path class="cls-2" d="M1478.78,703.19l-19.34-.76c1.46-37.03-1.21-73.05-7.93-107.06-9.28-46.97-26.32-90.31-50.66-128.83-8.7-13.77-18.47-27.12-29.03-39.68l-4.16-4.95,2.97-5.74c22.32-43.07,43.25-87.52,62.2-132.11,9.46-22.24,18.62-44.98,27.22-67.59l18.09,6.89c-8.7,22.83-17.95,45.8-27.5,68.27-18.31,43.08-38.45,86.03-59.89,127.75,9.55,11.75,18.43,24.11,26.46,36.81,25.61,40.54,43.54,86.1,53.28,135.41.29,1.48.58,2.96.86,4.45,6.29-33.7,14.93-66.79,25.89-99.06,7.79-22.93,16.86-45.75,26.98-67.85l-39.75-182.18,6.78-89.79,52.98,274.8-1.22,2.65c-10.33,22.31-19.56,45.39-27.44,68.6-21.69,63.88-34.07,131.12-36.79,199.85,0,.04,0,.07,0,.11Z"/>
    <path class="cls-2" d="M1743.68,413.01c20.33,46.59,6.78,65.22-13.8,89.03l-.48,1.09-.73.94c-18.65,24.06-34.3,50.13-46.5,77.5-32.53,72.93-32.78,139.1-32.94,182.89-.42,112.39,3.56,229.5,11.83,348.09,7.79,28.81,18.79,56.55,32.72,82.48,25.66,47.76,53.15,74.61,79.74,100.57,21.58,21.07,41.96,40.97,59.16,69.97,30.28,51.08,40.74,115.44,31.08,191.29l-19.2-2.44c9.1-71.48-.5-131.7-28.53-178.98-15.89-26.81-35.39-45.84-56.03-66-26.35-25.72-56.21-54.88-83.27-105.26-14.77-27.51-26.42-56.95-34.6-87.52l-.24-.9-.06-.93c-8.35-119.39-12.37-237.29-11.95-350.45.17-45.41.43-114.04,34.62-190.7,12.68-28.42,28.87-55.5,48.14-80.52,20.03-22.56,30.44-29.77,7.33-81.85"/>
    <path class="cls-2" d="M1714.92,317.52l1.03.78"/>
    <path class="cls-2" d="M1921.47,2310.41h-19.35v-351.73c.47-53.69,8.8-106.14,24.77-155.96,4.59-14.33,9.89-28.64,15.73-42.53l.07-.17,92.58-208.8L2045.19,2.88l19.35.15-9.95,1552.37-94.18,212.4c-5.61,13.34-10.69,27.08-15.1,40.84-15.37,47.97-23.39,98.48-23.84,150.14v351.64Z"/>
    <polygon class="cls-2" points="2856.96 1562.58 2873.57 1535.43 2936.67 1518.61 2936.97 1518.55 3375.13 1417.2 3379.49 1436.06 2941.62 1537.33 2856.96 1562.58"/>
    <polygon class="cls-2" points="2832.54 1997.92 2828.16 1979.07 3253.32 1880.16 3280.68 1833.26 3269.45 1775.74 3288.45 1772.03 3301.07 1836.71 3265.83 1897.12 3261.77 1898.07 2832.54 1997.92"/>
    <rect class="cls-2" x="2743.75" y="1651.64" width="151.07" height="19.35" transform="translate(-283.62 621.94) rotate(-11.99)"/>
    <rect class="cls-2" x="2906.62" y="1548.82" width="19.35" height="411.31" transform="translate(-300.85 644.08) rotate(-11.99)"/>
    <rect class="cls-2" x="2764.12" y="1700.12" width="639.19" height="19.35" transform="translate(-304.45 733.56) rotate(-12.93)"/>
    <polygon class="cls-2" points="2798.16 1890.64 2793.99 1871.74 3308.91 1758.13 3319.55 1728.57 3303.64 1659.29 3322.51 1654.96 3339.69 1729.78 3323.51 1774.73 2798.16 1890.64"/>
    <rect class="cls-2" x="2953.88" y="1569.71" width="467.9" height="19.35" transform="translate(-269.2 739.33) rotate(-12.7)"/>
    <rect class="cls-2" x="3040.83" y="1507.81" width="19.35" height="423.81" transform="translate(-310.33 735.93) rotate(-13.1)"/>
    <rect class="cls-2" x="3110.69" y="1491.65" width="19.35" height="423.72" transform="translate(-304.84 751.35) rotate(-13.1)"/>
    <rect class="cls-2" x="3181.16" y="1475.35" width="19.35" height="423.62" transform="translate(-298.12 762.43) rotate(-13.02)"/>
    <rect class="cls-2" x="3224.95" y="1462.4" width="19.35" height="210" transform="translate(-268.77 763.8) rotate(-12.93)"/>
    <path class="cls-2" d="M73.39,1361.02l-10.38-12.18c68.33-58.21,118.96-117.47,150.48-176.13,24.01-44.68,37.42-90.1,39.85-135.01,1.63-30.07-1.93-51.26-5.69-73.71-5.1-30.46-10.38-61.95-2.72-116.71,7.77-55.5,22.54-90.65,38.19-127.86,13.7-32.6,27.88-66.3,38.13-116.58,12.28-60.19,14.52-123.16,6.67-187.17l15.88-1.95c8.06,65.72,5.74,130.43-6.88,192.31-10.57,51.83-25.05,86.28-39.06,119.59-15.23,36.22-29.61,70.43-37.09,123.88-7.32,52.32-2.25,82.59,2.65,111.85,3.74,22.31,7.6,45.38,5.88,77.21-2.56,47.27-16.6,94.95-41.73,141.72-32.47,60.42-84.35,121.23-154.2,180.74Z"/>
  </g>
  <g id="icons">
    <polygon class="cls-3" points="2420.08 1866.08 2504.76 1819.59 2420.08 1769.33 2335.39 1819.59 2420.08 1866.08"/>
    <path class="cls-3" d="M2420.08,1869.79l-64.83-35.6c0,34.16,0,35.3,0,69.46,25.33,7.22,47.66,9.11,64.83,9.11,26.05,0,48.13-4.35,64.83-9.11v-69.46s-64.83,35.6-64.83,35.6Z"/>
    <rect class="cls-3" x="1290.17" y="561.77" width="100.62" height="75.49"/>
    <polygon class="cls-3" points="1340.49 485.24 1271.93 558.76 1409.04 558.76 1340.49 485.24"/>
  </g>
</svg>