<?xml version="1.0" encoding="UTF-8"?>
<svg id="Layer_6" data-name="Layer 6" xmlns="http://www.w3.org/2000/svg" viewBox="0 0 3974.34 2310.41">
  <defs>
    <style>
      .cls-1 {
        fill: none;
        stroke: #e85d7e;
        stroke-miterlimit: 10;
        stroke-width: 9px;
      }
    </style>
  </defs>
  <path class="cls-1" d="M2437.7,1736.67v-185.22l-1520.19,4.52c-11.35-6.04-29.18-16.74-47.44-33.88-67.27-63.18-61.27-139.81-101.65-307.2-36.2-150.08-63.61-182.09-90.35-201.03-33.52-23.74-70.73-31.94-101.65-38.4-94.98-19.84-148.74,9.09-187.48-29.36-18.08-17.94-10.89-28.73-31.62-51.95-31.02-34.74-77.24-44.34-112.39-46.85,5.68-27.83,15.62-69.36,33.33-118.04,20.88-57.4,36.67-81.1,49.69-115.2,16.33-42.77,30.49-107.63,15.85-200.31,315.47,2.02,630.94,4.04,946.41,6.06v92.61"/>
</svg>